<svg width="14" height="14" viewBox="0 0 14 14" fill="none" xmlns="http://www.w3.org/2000/svg">
<path fill-rule="evenodd" clip-rule="evenodd" d="M0.308058 0.308058C0.552136 0.0639806 0.947864 0.0639806 1.19194 0.308058L13.6919 12.8081C13.936 13.0521 13.936 13.4479 13.6919 13.6919C13.4479 13.936 13.0521 13.936 12.8081 13.6919L0.308058 1.19194C0.0639806 0.947864 0.0639806 0.552136 0.308058 0.308058Z" fill="#484848"/>
<path fill-rule="evenodd" clip-rule="evenodd" d="M13.6919 0.308058C13.4479 0.0639806 13.0521 0.0639806 12.8081 0.308058L0.308058 12.8081C0.0639803 13.0521 0.0639803 13.4479 0.308058 13.6919C0.552136 13.936 0.947864 13.936 1.19194 13.6919L13.6919 1.19194C13.936 0.947864 13.936 0.552136 13.6919 0.308058Z" fill="#484848"/>
</svg>
