<svg width="18" height="18" viewBox="0 0 18 18" fill="none" xmlns="http://www.w3.org/2000/svg">
<path fill-rule="evenodd" clip-rule="evenodd" d="M0.875 12.75C0.875 12.5842 0.940848 12.4253 1.05806 12.308L11.7903 1.57581C13.0107 0.355424 14.9893 0.355427 16.2097 1.57581L16.4242 1.79028C17.6446 3.01067 17.6446 4.98931 16.4242 6.2097L5.69194 16.9419C5.57473 17.0591 5.41576 17.125 5.25 17.125H1.5C1.33424 17.125 1.17527 17.0591 1.05806 16.9419C0.940848 16.8247 0.875 16.6657 0.875 16.5V12.75ZM2.125 13.0089L2.125 15.875H4.99112L13.7411 7.12496L10.875 4.25885L2.125 13.0089ZM11.7589 3.37496L14.625 6.24108L15.5403 5.32581C16.2725 4.59358 16.2725 3.4064 15.5403 2.67416L15.3258 2.4597C14.5936 1.72746 13.4064 1.72746 12.6742 2.4597L11.7589 3.37496Z" fill="#717171"/>
<path d="M9 16.5C9 16.1548 9.27982 15.875 9.625 15.875H15.875C16.2202 15.875 16.5 16.1548 16.5 16.5C16.5 16.8452 16.2202 17.125 15.875 17.125H9.625C9.27982 17.125 9 16.8452 9 16.5Z" fill="#717171"/>
</svg>
