<svg width="18" height="16" viewBox="0 0 18 16" fill="none" xmlns="http://www.w3.org/2000/svg">
<path fill-rule="evenodd" clip-rule="evenodd" d="M4.9375 1.75C3.03902 1.75 1.5 3.28902 1.5 5.1875C1.5 6.09662 1.88881 6.98425 2.55408 7.90825C3.22208 8.83602 4.12081 9.73693 5.06694 10.6831C5.82471 11.4408 6.81979 12.2837 7.67702 12.985C8.0031 13.2518 8.30576 13.4953 8.56639 13.705C8.64738 13.7702 8.72432 13.8321 8.79664 13.8904C8.86954 13.9492 8.94014 14.0063 9.00669 14.0604C9.05254 14.0226 9.10166 13.982 9.15371 13.939C9.48975 13.6614 9.94735 13.2817 10.4339 12.873C11.4177 12.0466 12.4877 11.1284 12.9331 10.6831C13.8792 9.73693 14.7779 8.83602 15.4459 7.90825C16.1112 6.98425 16.5 6.09662 16.5 5.1875C16.5 3.28902 14.961 1.75 13.0625 1.75C11.164 1.75 9.625 3.28902 9.625 5.1875C9.625 5.53268 9.34518 5.8125 9 5.8125C8.65482 5.8125 8.375 5.53268 8.375 5.1875C8.375 3.28902 6.83598 1.75 4.9375 1.75ZM9 2.84739C8.19003 1.44429 6.67404 0.5 4.9375 0.5C2.34867 0.5 0.25 2.59867 0.25 5.1875C0.25 6.46588 0.798692 7.6095 1.53967 8.63863C2.27241 9.65632 3.23961 10.6235 4.16223 11.5461L4.18306 11.5669C4.98779 12.3717 6.02396 13.2476 6.88548 13.9525C7.21586 14.2228 7.52408 14.4708 7.78519 14.6809C7.86547 14.7455 7.9413 14.8065 8.01195 14.8635C8.33136 15.1211 8.51018 15.2691 8.55806 15.3169C8.78511 15.544 9.14726 15.5621 9.39577 15.3587L9 14.875C9.39577 15.3587 9.39574 15.3588 9.39577 15.3587L9.39596 15.3586L9.43508 15.3265C9.46065 15.3056 9.49821 15.2747 9.54631 15.2352C9.64251 15.1562 9.78088 15.0423 9.94981 14.9028C10.2876 14.6237 10.748 14.2417 11.2379 13.8301C12.2073 13.0159 13.3248 12.0591 13.8169 11.5669L13.8378 11.5461C14.7604 10.6235 15.7276 9.65632 16.4603 8.63863C17.2013 7.6095 17.75 6.46588 17.75 5.1875C17.75 2.59867 15.6513 0.5 13.0625 0.5C11.326 0.5 9.80997 1.44429 9 2.84739Z" fill="#B0B0B0"/>
</svg>
