<svg width="18" height="16" viewBox="0 0 18 16" fill="none" xmlns="http://www.w3.org/2000/svg">
<path d="M4.9375 0.5C6.67404 0.5 8.19003 1.44429 9 2.84739C9.80997 1.44429 11.326 0.5 13.0625 0.5C15.6513 0.5 17.75 2.59867 17.75 5.1875C17.75 6.46588 17.2013 7.6095 16.4603 8.63863C15.7276 9.65632 14.7604 10.6235 13.8378 11.5461L13.8169 11.5669C13.3248 12.0591 12.2073 13.0159 11.2379 13.8301C10.748 14.2417 10.2876 14.6237 9.94981 14.9028C9.78088 15.0423 9.64251 15.1562 9.54631 15.2352L9.39646 15.3582L9.39577 15.3587C9.14726 15.5621 8.78511 15.544 8.55806 15.3169C8.51018 15.2691 8.33136 15.1211 8.01195 14.8635C7.94181 14.8069 7.86656 14.7464 7.78692 14.6823L7.78527 14.6809C7.52417 14.4709 7.21584 14.2228 6.88548 13.9525C6.02396 13.2476 4.98779 12.3717 4.18306 11.5669L4.16223 11.5461C3.23961 10.6235 2.27241 9.65632 1.53967 8.63863C0.798692 7.6095 0.25 6.46588 0.25 5.1875C0.25 2.59867 2.34867 0.5 4.9375 0.5Z" fill="#F75961"/>
</svg>
