<svg width="17" height="17" viewBox="0 0 17 17" fill="none" xmlns="http://www.w3.org/2000/svg">
<path fill-rule="evenodd" clip-rule="evenodd" d="M0.78125 3.75C0.78125 2.1104 2.11041 0.78125 3.75 0.78125H13.25C14.8896 0.78125 16.2187 2.11041 16.2187 3.75V13.25C16.2187 14.8896 14.8896 16.2187 13.25 16.2187H3.75C2.1104 16.2187 0.78125 14.8896 0.78125 13.25V3.75ZM1.96875 11.1209V13.25C1.96875 14.2338 2.76624 15.0312 3.75 15.0312H13.0041L6.79078 8.81797C6.09516 8.12235 4.96734 8.12235 4.27172 8.81797L1.96875 11.1209ZM14.3236 14.6714L7.63047 7.97828C6.4711 6.81891 4.5914 6.81891 3.43203 7.97828L1.96875 9.44156V3.75C1.96875 2.76624 2.76624 1.96875 3.75 1.96875H13.25C14.2338 1.96875 15.0312 2.76624 15.0312 3.75V13.25C15.0312 13.8306 14.7535 14.3463 14.3236 14.6714ZM9.09375 5.82812C9.09375 4.68041 10.0242 3.75 11.1719 3.75C12.3196 3.75 13.25 4.68041 13.25 5.82812C13.25 6.97584 12.3196 7.90625 11.1719 7.90625C10.0242 7.90625 9.09375 6.97584 9.09375 5.82812ZM11.1719 4.9375C10.68 4.9375 10.2812 5.33625 10.2812 5.82812C10.2812 6.32 10.68 6.71875 11.1719 6.71875C11.6638 6.71875 12.0625 6.32 12.0625 5.82812C12.0625 5.33625 11.6638 4.9375 11.1719 4.9375Z" fill="#717171"/>
</svg>
