<svg width="2" height="12" viewBox="0 0 2 12" fill="none" xmlns="http://www.w3.org/2000/svg">
<path d="M0 1C0 1.55229 0.447711 2.00001 0.999996 2.00001C1.55228 2.00001 2 1.55229 2 1C2 0.447719 1.55228 0 0.999996 0C0.447711 0 0 0.447718 0 1Z" fill="#222222"/>
<path d="M0 11C0 11.5523 0.447711 12 0.999996 12C1.55228 12 2 11.5523 2 11C2 10.4477 1.55228 10 0.999996 10C0.447711 10 0 10.4477 0 11Z" fill="#222222"/>
<path d="M0.999996 7.00001C0.447711 7.00001 0 6.55229 0 6C0 5.44772 0.447711 5 0.999996 5C1.55228 5 2 5.44772 2 6C2 6.55229 1.55228 7.00001 0.999996 7.00001Z" fill="#222222"/>
</svg>
