<svg width="59" height="16" viewBox="0 0 59 16" fill="none" xmlns="http://www.w3.org/2000/svg">
<path d="M5.29535 15.111C2.84917 15.111 2.3091 13.6179 2.3091 11.8388V7.51832H1.54665C0.657133 7.51832 0.498291 6.91471 0.498291 6.59702C0.498291 6.27934 0.657133 5.67573 1.54665 5.67573H2.3091V4.0873C2.3091 3.03894 3.07155 2.84833 3.45277 2.84833C3.834 2.84833 4.59644 3.03894 4.59644 4.0873V5.67573H6.02603C6.91555 5.67573 7.0744 6.27934 7.0744 6.59702C7.0744 6.91471 6.91555 7.51832 6.02603 7.51832H4.59644V11.8071C4.59644 12.6966 4.91413 13.2049 5.48596 13.2049C5.58127 13.2049 5.70834 13.1731 5.86719 13.1731C6.02603 13.1414 6.0578 13.1414 6.12134 13.1414C6.69317 13.1414 7.01086 13.5544 7.01086 13.9991C7.01086 14.3803 6.78848 14.6663 6.43902 14.8569C6.12134 15.0157 5.70834 15.111 5.29535 15.111Z" fill="#717171"/>
<path d="M13.0468 15.1745C10.2511 15.1745 8.02734 13.1413 8.02734 10.2504C8.02734 7.32769 10.2511 5.3898 13.0468 5.3898C15.8424 5.3898 18.0662 7.32769 18.0662 10.2504C18.098 13.1731 15.8424 15.1745 13.0468 15.1745ZM13.0468 7.29592C11.2042 7.29592 10.3782 8.82081 10.3782 10.2504C10.3782 11.68 11.236 13.2684 13.0468 13.2684C14.8894 13.2684 15.7153 11.7118 15.7153 10.2504C15.7153 8.78904 14.8894 7.29592 13.0468 7.29592Z" fill="#717171"/>
<path d="M28.6134 15.0792C28.264 15.0792 27.5015 14.9204 27.5015 13.872V13.5226H27.4698C26.8344 14.5709 25.5954 15.1745 24.2929 15.1745C21.4655 15.1745 19.75 12.9507 19.75 10.2504C19.75 7.5183 21.5926 5.3898 24.2294 5.3898C25.9131 5.3898 26.8344 6.24755 27.3427 6.81939H27.4062V1.48226C27.4062 0.37036 28.1687 0.179749 28.5499 0.179749C28.9311 0.179749 29.6936 0.37036 29.6936 1.48226V13.872C29.7253 14.9204 28.9629 15.0792 28.6134 15.0792ZM24.7694 13.2684C26.4532 13.2684 27.4698 11.7435 27.4698 10.3139C27.4698 8.88435 26.4532 7.29592 24.7694 7.29592C22.9904 7.29592 22.1009 8.82081 22.1009 10.2504C22.1009 11.68 22.9904 13.2684 24.7694 13.2684Z" fill="#717171"/>
<path d="M40.8444 15.0792C40.4949 15.0792 39.7325 14.9204 39.7325 13.872V13.5226H39.7007C39.0654 14.5709 37.8264 15.1745 36.5239 15.1745C33.6965 15.1745 31.981 12.9507 31.981 10.2504C31.981 7.5183 33.8235 5.3898 36.4603 5.3898C38.1441 5.3898 39.0654 6.24755 39.5737 6.81939H39.6372V1.48226C39.6372 0.37036 40.3996 0.179749 40.7809 0.179749C41.1621 0.179749 41.9245 0.37036 41.9245 1.48226V13.872C41.9245 14.9204 41.1939 15.0792 40.8444 15.0792ZM37.0004 13.2684C38.6841 13.2684 39.7007 11.7435 39.7007 10.3139C39.7007 8.88435 38.6841 7.29592 37.0004 7.29592C35.2214 7.29592 34.3318 8.82081 34.3318 10.2504C34.3318 11.68 35.1896 13.2684 37.0004 13.2684Z" fill="#717171"/>
<path d="M44.7837 1.48226C44.7837 0.37036 45.5461 0.179749 45.9274 0.179749C46.3086 0.179749 47.071 0.37036 47.071 1.48226V13.8085C47.071 14.9204 46.3086 15.111 45.9274 15.111C45.5461 15.111 44.7837 14.9204 44.7837 13.8085V1.48226Z" fill="#717171"/>
<path d="M51.6775 11.0128C51.7728 12.3154 52.98 13.3002 54.3143 13.3002C55.2673 13.3002 55.8709 12.9825 56.4428 12.506C56.7604 12.2518 56.9828 12.1883 57.237 12.1883C57.7453 12.1883 58.1583 12.5695 58.1583 13.1096C58.1583 13.3002 58.0947 13.6496 57.7771 13.9356C56.8875 14.7933 55.8392 15.1745 54.346 15.1745C51.4869 15.1745 49.3901 13.332 49.3901 10.3457C49.3901 7.35945 51.4869 5.3898 54.2825 5.3898C56.5063 5.3898 58.3171 6.66055 58.6983 9.39265C58.7301 9.58326 58.7301 9.71033 58.7301 9.86918C58.7301 10.6634 58.2853 11.0128 57.5229 11.0128H51.6775ZM56.411 9.36088C56.411 8.15367 55.7439 7.13707 54.219 7.13707C52.8529 7.13707 51.741 8.09013 51.6457 9.36088H56.411Z" fill="#717171"/>
</svg>
